<svg version="1.1" viewBox="0.0 0.0 96.0 96.0" fill="none" stroke="none" stroke-linecap="square" stroke-miterlimit="10" xmlns:xlink="http://www.w3.org/1999/xlink" xmlns="http://www.w3.org/2000/svg"><clipPath id="p.0"><path d="m0 0l96.0 0l0 96.0l-96.0 0l0 -96.0z" clip-rule="nonzero"/></clipPath><g clip-path="url(#p.0)"><path fill="#000000" fill-opacity="0.0" d="m0 0l96.0 0l0 96.0l-96.0 0z" fill-rule="evenodd"/><path fill="#ffffff" d="m55.815693 94.65547l4.480316 -78.32284l-50.43307 -14.622046l-4.480315 78.32284z" fill-rule="evenodd"/><path stroke="#000000" stroke-width="1.0" stroke-linejoin="round" stroke-linecap="butt" d="m55.815693 94.65547l4.480316 -78.32284l-50.43307 -14.622046l-4.480315 78.32284z" fill-rule="evenodd"/><path fill="#000000" fill-opacity="0.0" d="m12.503937 13.240765l44.755905 13.070866" fill-rule="evenodd"/><path stroke="#000000" stroke-width="1.0" stroke-linejoin="round" stroke-linecap="butt" d="m12.503937 13.240765l44.755905 13.070866" fill-rule="evenodd"/><path fill="#000000" fill-opacity="0.0" d="m12.503937 22.650213l44.755905 13.070868" fill-rule="evenodd"/><path stroke="#000000" stroke-width="1.0" stroke-linejoin="round" stroke-linecap="butt" d="m12.503937 22.650213l44.755905 13.070868" fill-rule="evenodd"/><path fill="#000000" fill-opacity="0.0" d="m11.343832 32.68171l44.755905 13.070866" fill-rule="evenodd"/><path stroke="#000000" stroke-width="1.0" stroke-linejoin="round" stroke-linecap="butt" d="m11.343832 32.68171l44.755905 13.070866" fill-rule="evenodd"/><path fill="#000000" fill-opacity="0.0" d="m10.461943 43.45861l44.755905 13.070869" fill-rule="evenodd"/><path stroke="#000000" stroke-width="1.0" stroke-linejoin="round" stroke-linecap="butt" d="m10.461943 43.45861l44.755905 13.070869" fill-rule="evenodd"/><path fill="#ffff00" d="m25.931759 58.38512l6.34383 -5.0971107l56.703415 -21.637796l2.8608932 7.834646l-55.958008 20.144356z" fill-rule="evenodd"/><path stroke="#000000" stroke-width="1.0" stroke-linejoin="round" stroke-linecap="butt" d="m25.931759 58.38512l6.34383 -5.0971107l56.703415 -21.637796l2.8608932 7.834646l-55.958008 20.144356z" fill-rule="evenodd"/><path fill="#fce5cd" d="m32.65354 53.742077l2.687664 5.4986877l-7.280838 -0.8556442l0.34383202 -1.4566917z" fill-rule="evenodd"/><path fill="#000000" d="m29.913385 55.521603l0.8713913 3.2335968l-4.475065 -0.44356918z" fill-rule="evenodd"/><path fill="#ff00ff" d="m83.10499 34.27751l2.7217865 7.1732254l5.9343796 -1.8976364l-2.8031464 -7.7480316z" fill-rule="evenodd"/><path fill="#cccccc" d="m81.04462 34.60822l2.6377945 -1.0734901l2.6378021 8.328083l-1.8950195 0.5774269z" fill-rule="evenodd"/><path fill="#000000" fill-opacity="0.0" d="m25.931759 58.38512l6.34383 -5.0971107l56.703415 -21.637796l2.8608932 7.834646l-55.958008 20.144356z" fill-rule="evenodd"/><path stroke="#000000" stroke-width="1.0" stroke-linejoin="round" stroke-linecap="butt" d="m25.931759 58.38512l6.34383 -5.0971107l56.703415 -21.637796l2.8608932 7.834646l-55.958008 20.144356z" fill-rule="evenodd"/><path fill="#000000" fill-opacity="0.0" d="m10.461943 54.244614l15.968504 4.1574783" fill-rule="evenodd"/><path stroke="#000000" stroke-width="1.0" stroke-linejoin="round" stroke-linecap="butt" d="m10.461943 54.244614l15.968504 4.1574783" fill-rule="evenodd"/></g></svg>